<svg width="55" height="55" viewBox="0 0 55 55" fill="none" xmlns="http://www.w3.org/2000/svg">
<circle cx="27.5" cy="27.5" r="27.5" fill="#386DFF" fill-opacity="0.24"/>
<path d="M32.3398 29.5625C30.6406 29.5625 29.8789 30.5 27.125 30.5C24.3125 30.5 23.5508 29.5625 21.8516 29.5625C17.5156 29.5625 14 33.1367 14 37.4727V38.9375C14 40.5195 15.2305 41.75 16.8125 41.75H37.4375C38.9609 41.75 40.25 40.5195 40.25 38.9375V37.4727C40.25 33.1367 36.6758 29.5625 32.3398 29.5625ZM37.4375 38.9375H16.8125V37.4727C16.8125 34.6602 19.0391 32.375 21.8516 32.375C22.7305 32.375 24.0781 33.3125 27.125 33.3125C30.1133 33.3125 31.4609 32.375 32.3398 32.375C35.1523 32.375 37.4375 34.6602 37.4375 37.4727V38.9375ZM27.125 28.625C31.7539 28.625 35.5625 24.875 35.5625 20.1875C35.5625 15.5586 31.7539 11.75 27.125 11.75C22.4375 11.75 18.6875 15.5586 18.6875 20.1875C18.6875 24.875 22.4375 28.625 27.125 28.625ZM27.125 14.5625C30.1719 14.5625 32.75 17.1406 32.75 20.1875C32.75 23.293 30.1719 25.8125 27.125 25.8125C24.0195 25.8125 21.5 23.293 21.5 20.1875C21.5 17.1406 24.0195 14.5625 27.125 14.5625Z" fill="#386DFF"/>
</svg>
