<svg width="18" height="21" viewBox="0 0 18 21" fill="none" xmlns="http://www.w3.org/2000/svg">
<path d="M6.25 3.625C6.25 4.91406 5.46875 6.00781 4.375 6.51562V9.95312C5.07812 9.52344 5.9375 9.25 6.875 9.25H10.625C11.9922 9.25 13.125 8.15625 13.125 6.75V6.51562C11.9922 6.00781 11.25 4.91406 11.25 3.625C11.25 1.90625 12.6172 0.5 14.375 0.5C16.0938 0.5 17.5 1.90625 17.5 3.625C17.5 4.91406 16.7188 6.00781 15.625 6.51562V6.75C15.625 9.52344 13.3594 11.75 10.625 11.75H6.875C5.46875 11.75 4.375 12.8828 4.375 14.25V14.5234C5.46875 14.9922 6.25 16.125 6.25 17.375C6.25 19.1328 4.84375 20.5 3.125 20.5C1.36719 20.5 0 19.1328 0 17.375C0 16.125 0.742188 14.9922 1.875 14.5234V6.51562C0.742188 6.00781 0 4.91406 0 3.625C0 1.90625 1.36719 0.5 3.125 0.5C4.84375 0.5 6.25 1.90625 6.25 3.625ZM3.125 4.5625C3.63281 4.5625 4.0625 4.17188 4.0625 3.625C4.0625 3.11719 3.63281 2.6875 3.125 2.6875C2.57812 2.6875 2.1875 3.11719 2.1875 3.625C2.1875 4.17188 2.57812 4.5625 3.125 4.5625ZM14.375 2.6875C13.8281 2.6875 13.4375 3.11719 13.4375 3.625C13.4375 4.17188 13.8281 4.5625 14.375 4.5625C14.8828 4.5625 15.3125 4.17188 15.3125 3.625C15.3125 3.11719 14.8828 2.6875 14.375 2.6875ZM3.125 18.3125C3.63281 18.3125 4.0625 17.9219 4.0625 17.375C4.0625 16.8672 3.63281 16.4375 3.125 16.4375C2.57812 16.4375 2.1875 16.8672 2.1875 17.375C2.1875 17.9219 2.57812 18.3125 3.125 18.3125Z" fill="black"/>
</svg>
